<svg xmlns="http://www.w3.org/2000/svg" xmlns:xlink="http://www.w3.org/1999/xlink" width="80" zoomAndPan="magnify" viewBox="0 0 60 60" height="80" preserveAspectRatio="xMidYMid meet" version="1.0"><defs><g/><clipPath id="id1"><path d="M 14 45.054688 L 22 45.054688 L 22 50.304688 L 14 50.304688 Z M 14 45.054688 " clip-rule="nonzero"/></clipPath></defs><g fill="#ffffff" fill-opacity="1"><g transform="translate(14.945228, 42.40912)"><g><path d="M 0.578125 -23.53125 C 8.347656 -23.570312 15.691406 -23.1875 22.609375 -22.375 L 23.171875 -22.375 C 23.347656 -22.375 23.535156 -22.179688 23.734375 -21.796875 L 23.734375 -21.625 C 22.992188 -19.113281 20.738281 -18.097656 16.96875 -18.578125 C 16.457031 -18.578125 15.566406 -18.648438 14.296875 -18.796875 C 11.546875 -13.242188 9.695312 -6.425781 8.75 1.65625 L 7.53125 2.1875 C 6.101562 -1.488281 5.550781 -5.144531 5.875 -8.78125 C 6.207031 -12.414062 7.007812 -15.816406 8.28125 -18.984375 L 8.28125 -19.15625 C 7.425781 -19.25 6.054688 -19.53125 4.171875 -20 C 1.660156 -20.46875 0.335938 -21.578125 0.203125 -23.328125 Z M 0.578125 -23.53125 "/></g></g></g><g fill="#ffffff" fill-opacity="0.4"><g transform="translate(12.944036, 20.973309)"><g><path d="M 0.828125 -6.359375 C 0.796875 -6.941406 0.863281 -7.675781 1.03125 -8.5625 C 1.195312 -9.457031 1.472656 -10.019531 1.859375 -10.25 L 1.921875 -10.296875 C 1.960938 -10.316406 2.0625 -10.34375 2.21875 -10.375 C 2.019531 -8.414062 1.875 -7.015625 1.78125 -6.171875 C 1.75 -5.941406 1.757812 -5.78125 1.8125 -5.6875 C 2.539062 -5.21875 3.140625 -4.882812 3.609375 -4.6875 C 4.085938 -4.5 4.460938 -4.515625 4.734375 -4.734375 C 5.015625 -4.953125 5.195312 -5.09375 5.28125 -5.15625 L 5.390625 -4.953125 C 5.421875 -4.890625 5.332031 -4.722656 5.125 -4.453125 C 4.914062 -4.191406 4.640625 -3.960938 4.296875 -3.765625 C 3.953125 -3.566406 3.601562 -3.550781 3.25 -3.71875 C 2.457031 -4.09375 1.941406 -4.394531 1.703125 -4.625 C 1.640625 -4.695312 1.601562 -4.671875 1.59375 -4.546875 C 1.46875 -3.941406 1.34375 -3.269531 1.21875 -2.53125 C 1.03125 -1.351562 0.738281 -0.660156 0.34375 -0.453125 L 0.265625 -0.40625 C -0.0234375 -0.257812 -0.1875 -0.410156 -0.21875 -0.859375 C 0.0625 -2.679688 0.207031 -4.097656 0.21875 -5.109375 C 0.21875 -5.128906 0.210938 -5.148438 0.203125 -5.171875 C -0.171875 -5.640625 -0.628906 -5.957031 -1.171875 -6.125 C -1.710938 -6.300781 -2.054688 -6.351562 -2.203125 -6.28125 C -2.359375 -6.21875 -2.484375 -6.132812 -2.578125 -6.03125 C -2.671875 -5.925781 -2.738281 -5.914062 -2.78125 -6 C -2.832031 -6.09375 -2.832031 -6.1875 -2.78125 -6.28125 C -2.726562 -6.382812 -2.628906 -6.488281 -2.484375 -6.59375 C -2.335938 -6.707031 -2.175781 -6.8125 -2 -6.90625 C -1.820312 -7.007812 -1.445312 -7.046875 -0.875 -7.015625 C -0.300781 -6.992188 0.21875 -6.753906 0.6875 -6.296875 C 0.84375 -6.128906 0.890625 -6.148438 0.828125 -6.359375 Z M 0.828125 -6.359375 "/></g></g></g><g fill="#ffffff" fill-opacity="0.4"><g transform="translate(18.168331, 18.026725)"><g><path d="M -0.28125 -6.59375 C -0.21875 -6.664062 -0.101562 -6.679688 0.0625 -6.640625 C 0.226562 -6.609375 0.320312 -6.554688 0.34375 -6.484375 L 0.40625 -6.296875 C 0.570312 -5.804688 0.4375 -5.488281 0 -5.34375 L -0.140625 -5.296875 C -0.203125 -5.273438 -0.28125 -5.316406 -0.375 -5.421875 L -0.5 -5.796875 C -0.425781 -6.265625 -0.351562 -6.53125 -0.28125 -6.59375 Z M -0.421875 -4.921875 C 0.0546875 -4.984375 0.347656 -4.851562 0.453125 -4.53125 L 0.515625 -4.359375 C 0.242188 -3.109375 0.171875 -2.289062 0.296875 -1.90625 C 0.429688 -1.820312 0.546875 -1.796875 0.640625 -1.828125 C 0.734375 -1.859375 0.867188 -1.957031 1.046875 -2.125 C 1.222656 -2.300781 1.554688 -2.84375 2.046875 -3.75 C 2.128906 -3.769531 2.179688 -3.742188 2.203125 -3.671875 C 2.242188 -3.554688 2.085938 -3.210938 1.734375 -2.640625 C 1.390625 -2.078125 1.039062 -1.71875 0.6875 -1.5625 C 0.226562 -1.414062 -0.191406 -1.660156 -0.578125 -2.296875 L -0.609375 -2.4375 C -0.703125 -2.707031 -0.675781 -3.4375 -0.53125 -4.625 C -0.5625 -4.789062 -0.523438 -4.890625 -0.421875 -4.921875 Z M -0.421875 -4.921875 "/></g></g></g><g fill="#ffffff" fill-opacity="0.4"><g transform="translate(19.971106, 17.073186)"><g><path d="M 0.671875 -7.421875 L 0.734375 -7.421875 C 1.335938 -7.484375 1.664062 -7.265625 1.71875 -6.765625 L 1.75 -6.375 C 1.695312 -5.90625 1.648438 -5.421875 1.609375 -4.921875 L 1.65625 -4.9375 C 2.457031 -6.113281 3.210938 -6.695312 3.921875 -6.6875 C 4.628906 -6.6875 5.125 -6.25 5.40625 -5.375 C 5.53125 -5.082031 5.617188 -4.847656 5.671875 -4.671875 C 5.671875 -4.640625 5.65625 -4.625 5.625 -4.625 L 5.734375 -4.046875 C 5.753906 -3.816406 5.769531 -3.0625 5.78125 -1.78125 L 5.828125 -1.78125 C 5.867188 -1.476562 6.171875 -1.472656 6.734375 -1.765625 C 7.296875 -2.054688 7.367188 -1.945312 6.953125 -1.4375 C 6.535156 -0.925781 6.125 -0.648438 5.71875 -0.609375 C 5.3125 -0.566406 4.9375 -0.722656 4.59375 -1.078125 C 4.1875 -1.628906 3.953125 -2.179688 3.890625 -2.734375 C 3.859375 -3.046875 3.847656 -4 3.859375 -5.59375 L 3.859375 -5.703125 C 3.398438 -5.484375 2.925781 -5.144531 2.4375 -4.6875 C 1.945312 -4.238281 1.570312 -3.539062 1.3125 -2.59375 C 1.050781 -1.644531 0.828125 -1.082031 0.640625 -0.90625 L 0.453125 -0.890625 C -0.160156 -0.734375 -0.410156 -1.253906 -0.296875 -2.453125 C -0.00390625 -4.472656 0.210938 -5.789062 0.359375 -6.40625 C 0.503906 -7.019531 0.609375 -7.359375 0.671875 -7.421875 Z M 0.671875 -7.421875 "/></g></g></g><g fill="#ffffff" fill-opacity="0.4"><g transform="translate(25.952327, 16.421346)"><g><path d="M 3.515625 -5.671875 L 4.609375 -5.5 C 4.972656 -5.25 5.144531 -5.078125 5.125 -4.984375 C 4.96875 -4.816406 4.488281 -4.726562 3.6875 -4.71875 C 2.882812 -4.707031 2.320312 -4.140625 2 -3.015625 L 1.96875 -2.796875 C 1.9375 -2.597656 1.972656 -2.390625 2.078125 -2.171875 C 2.191406 -1.953125 2.421875 -1.816406 2.765625 -1.765625 L 2.84375 -1.75 C 3.28125 -1.695312 4.179688 -1.925781 5.546875 -2.4375 L 5.578125 -2.296875 L 5.5625 -2.15625 C 4.332031 -1.363281 3.296875 -1.03125 2.453125 -1.15625 C 1.078125 -1.582031 0.46875 -2.296875 0.625 -3.296875 C 1.03125 -4.273438 1.550781 -4.941406 2.1875 -5.296875 C 2.8125 -5.578125 3.253906 -5.703125 3.515625 -5.671875 Z M 3.515625 -5.671875 "/></g></g></g><g fill="#ffffff" fill-opacity="0.4"><g transform="translate(29.817886, 16.714353)"><g><path d="M 5.828125 -8.421875 C 6.640625 -8.328125 6.941406 -8.046875 6.734375 -7.578125 L 6.6875 -7.46875 C 5.9375 -6.289062 4.988281 -4.96875 3.84375 -3.5 L 3.875 -3.484375 C 5.144531 -4.097656 6.085938 -4.226562 6.703125 -3.875 C 7.316406 -3.53125 7.53125 -2.910156 7.34375 -2.015625 C 7.320312 -1.703125 7.28125 -1.453125 7.21875 -1.265625 C 7.207031 -1.242188 7.191406 -1.238281 7.171875 -1.25 L 6.96875 -0.703125 C 6.882812 -0.492188 6.53125 0.175781 5.90625 1.3125 L 5.953125 1.328125 C 5.835938 1.609375 6.097656 1.753906 6.734375 1.765625 C 7.367188 1.785156 7.375 1.914062 6.75 2.15625 C 6.132812 2.40625 5.640625 2.445312 5.265625 2.28125 C 4.898438 2.125 4.65625 1.8125 4.53125 1.34375 C 4.445312 0.644531 4.515625 0.0390625 4.734375 -0.46875 C 4.859375 -0.75 5.320312 -1.582031 6.125 -2.96875 L 6.15625 -3.0625 C 5.65625 -3.09375 5.082031 -3.03125 4.4375 -2.875 C 3.789062 -2.726562 3.117188 -2.304688 2.421875 -1.609375 C 1.722656 -0.910156 1.25 -0.53125 1 -0.46875 L 0.828125 -0.546875 C 0.222656 -0.710938 0.265625 -1.289062 0.953125 -2.28125 C 2.203125 -3.894531 3.265625 -5.265625 4.140625 -6.390625 C 5.023438 -7.523438 5.585938 -8.203125 5.828125 -8.421875 Z M 5.828125 -8.421875 "/></g></g></g><g fill="#ffffff" fill-opacity="0.4"><g transform="translate(35.310954, 19.022619)"><g><path d="M 6.234375 -2.4375 C 6.765625 -2.082031 6.703125 -1.539062 6.046875 -0.8125 C 5.265625 -0.207031 4.804688 0.175781 4.671875 0.34375 C 4.503906 0.550781 4.476562 0.710938 4.59375 0.828125 C 4.8125 0.992188 5.367188 1.195312 6.265625 1.4375 L 6.265625 1.53125 L 6.109375 1.703125 C 5.898438 1.828125 5.503906 1.800781 4.921875 1.625 C 4.691406 1.625 4.460938 1.53125 4.234375 1.34375 C 3.867188 1 3.753906 0.625 3.890625 0.21875 C 4.035156 -0.1875 4.164062 -0.457031 4.28125 -0.59375 L 4.234375 -0.625 C 2.867188 -0.09375 1.976562 0.00390625 1.5625 -0.328125 C 1.46875 -0.410156 1.410156 -0.457031 1.390625 -0.46875 C 1.140625 -0.675781 1.101562 -1.085938 1.28125 -1.703125 C 1.46875 -2.316406 2.210938 -2.726562 3.515625 -2.9375 C 4.765625 -2.863281 5.445312 -2.785156 5.5625 -2.703125 C 5.976562 -2.546875 6.203125 -2.457031 6.234375 -2.4375 Z M 1.84375 -1.296875 L 1.875 -1.140625 C 2.664062 -0.972656 3.335938 -1 3.890625 -1.21875 C 4.453125 -1.4375 4.765625 -1.582031 4.828125 -1.65625 L 4.90625 -1.75 L 4.875 -1.78125 C 4.082031 -2.09375 3.390625 -2.101562 2.796875 -1.8125 C 2.203125 -1.519531 1.882812 -1.347656 1.84375 -1.296875 Z M 1.84375 -1.296875 "/></g></g></g><g fill="#ffffff" fill-opacity="0.4"><g transform="translate(39.019461, 22.022539)"><g><path d="M 6.953125 -1.0625 C 7.285156 -0.84375 7.4375 -0.710938 7.40625 -0.671875 C 7.382812 -0.628906 7.328125 -0.566406 7.234375 -0.484375 C 7.140625 -0.410156 6.832031 -0.554688 6.3125 -0.921875 C 6.007812 -0.335938 5.785156 0.0078125 5.640625 0.125 C 5.503906 0.238281 5.421875 0.304688 5.390625 0.328125 C 5.359375 0.359375 5.085938 0.476562 4.578125 0.6875 C 4.078125 0.90625 3.628906 0.957031 3.234375 0.84375 C 2.835938 0.726562 2.535156 0.582031 2.328125 0.40625 C 2.117188 0.238281 1.988281 0.125 1.9375 0.0625 C 1.894531 0.0078125 1.804688 -0.0976562 1.671875 -0.265625 C 1.535156 -0.429688 1.507812 -0.648438 1.59375 -0.921875 C 1.675781 -1.203125 1.835938 -1.457031 2.078125 -1.6875 C 2.316406 -1.914062 2.707031 -2.171875 3.25 -2.453125 C 3.800781 -2.742188 4.285156 -2.863281 4.703125 -2.8125 C 5.128906 -2.769531 5.34375 -2.742188 5.34375 -2.734375 C 5.351562 -2.722656 5.441406 -2.644531 5.609375 -2.5 C 5.773438 -2.363281 5.957031 -2.144531 6.15625 -1.84375 C 6.351562 -1.550781 6.617188 -1.289062 6.953125 -1.0625 Z M 3.25 -1.03125 C 2.957031 -0.789062 2.769531 -0.640625 2.6875 -0.578125 C 2.613281 -0.515625 2.601562 -0.410156 2.65625 -0.265625 C 2.707031 -0.117188 2.84375 -0.0078125 3.0625 0.0625 C 3.28125 0.132812 3.546875 0.117188 3.859375 0.015625 C 4.171875 -0.0859375 4.414062 -0.210938 4.59375 -0.359375 C 4.78125 -0.503906 4.878906 -0.582031 4.890625 -0.59375 C 4.910156 -0.613281 5.039062 -0.726562 5.28125 -0.9375 C 5.519531 -1.15625 5.625 -1.351562 5.59375 -1.53125 L 5.5 -1.640625 C 5.320312 -1.859375 5.109375 -1.929688 4.859375 -1.859375 C 4.617188 -1.796875 4.363281 -1.703125 4.09375 -1.578125 C 3.820312 -1.453125 3.539062 -1.269531 3.25 -1.03125 Z M 3.25 -1.03125 "/></g></g></g><g fill="#ffffff" fill-opacity="1"><g transform="translate(12.44769, 20.303803)"><g><path d="M 0.828125 -6.359375 C 0.796875 -6.941406 0.863281 -7.675781 1.03125 -8.5625 C 1.195312 -9.457031 1.472656 -10.019531 1.859375 -10.25 L 1.921875 -10.296875 C 1.960938 -10.316406 2.0625 -10.34375 2.21875 -10.375 C 2.019531 -8.414062 1.875 -7.015625 1.78125 -6.171875 C 1.75 -5.941406 1.757812 -5.78125 1.8125 -5.6875 C 2.539062 -5.21875 3.140625 -4.882812 3.609375 -4.6875 C 4.085938 -4.5 4.460938 -4.515625 4.734375 -4.734375 C 5.015625 -4.953125 5.195312 -5.09375 5.28125 -5.15625 L 5.390625 -4.953125 C 5.421875 -4.890625 5.332031 -4.722656 5.125 -4.453125 C 4.914062 -4.191406 4.640625 -3.960938 4.296875 -3.765625 C 3.953125 -3.566406 3.601562 -3.550781 3.25 -3.71875 C 2.457031 -4.09375 1.941406 -4.394531 1.703125 -4.625 C 1.640625 -4.695312 1.601562 -4.671875 1.59375 -4.546875 C 1.46875 -3.941406 1.34375 -3.269531 1.21875 -2.53125 C 1.03125 -1.351562 0.738281 -0.660156 0.34375 -0.453125 L 0.265625 -0.40625 C -0.0234375 -0.257812 -0.1875 -0.410156 -0.21875 -0.859375 C 0.0625 -2.679688 0.207031 -4.097656 0.21875 -5.109375 C 0.21875 -5.128906 0.210938 -5.148438 0.203125 -5.171875 C -0.171875 -5.640625 -0.628906 -5.957031 -1.171875 -6.125 C -1.710938 -6.300781 -2.054688 -6.351562 -2.203125 -6.28125 C -2.359375 -6.21875 -2.484375 -6.132812 -2.578125 -6.03125 C -2.671875 -5.925781 -2.738281 -5.914062 -2.78125 -6 C -2.832031 -6.09375 -2.832031 -6.1875 -2.78125 -6.28125 C -2.726562 -6.382812 -2.628906 -6.488281 -2.484375 -6.59375 C -2.335938 -6.707031 -2.175781 -6.8125 -2 -6.90625 C -1.820312 -7.007812 -1.445312 -7.046875 -0.875 -7.015625 C -0.300781 -6.992188 0.21875 -6.753906 0.6875 -6.296875 C 0.84375 -6.128906 0.890625 -6.148438 0.828125 -6.359375 Z M 0.828125 -6.359375 "/></g></g></g><g fill="#ffffff" fill-opacity="1"><g transform="translate(17.671984, 17.357219)"><g><path d="M -0.28125 -6.59375 C -0.21875 -6.664062 -0.101562 -6.679688 0.0625 -6.640625 C 0.226562 -6.609375 0.320312 -6.554688 0.34375 -6.484375 L 0.40625 -6.296875 C 0.570312 -5.804688 0.4375 -5.488281 0 -5.34375 L -0.140625 -5.296875 C -0.203125 -5.273438 -0.28125 -5.316406 -0.375 -5.421875 L -0.5 -5.796875 C -0.425781 -6.265625 -0.351562 -6.53125 -0.28125 -6.59375 Z M -0.421875 -4.921875 C 0.0546875 -4.984375 0.347656 -4.851562 0.453125 -4.53125 L 0.515625 -4.359375 C 0.242188 -3.109375 0.171875 -2.289062 0.296875 -1.90625 C 0.429688 -1.820312 0.546875 -1.796875 0.640625 -1.828125 C 0.734375 -1.859375 0.867188 -1.957031 1.046875 -2.125 C 1.222656 -2.300781 1.554688 -2.84375 2.046875 -3.75 C 2.128906 -3.769531 2.179688 -3.742188 2.203125 -3.671875 C 2.242188 -3.554688 2.085938 -3.210938 1.734375 -2.640625 C 1.390625 -2.078125 1.039062 -1.71875 0.6875 -1.5625 C 0.226562 -1.414062 -0.191406 -1.660156 -0.578125 -2.296875 L -0.609375 -2.4375 C -0.703125 -2.707031 -0.675781 -3.4375 -0.53125 -4.625 C -0.5625 -4.789062 -0.523438 -4.890625 -0.421875 -4.921875 Z M -0.421875 -4.921875 "/></g></g></g><g fill="#ffffff" fill-opacity="1"><g transform="translate(19.47476, 16.40368)"><g><path d="M 0.671875 -7.421875 L 0.734375 -7.421875 C 1.335938 -7.484375 1.664062 -7.265625 1.71875 -6.765625 L 1.75 -6.375 C 1.695312 -5.90625 1.648438 -5.421875 1.609375 -4.921875 L 1.65625 -4.9375 C 2.457031 -6.113281 3.210938 -6.695312 3.921875 -6.6875 C 4.628906 -6.6875 5.125 -6.25 5.40625 -5.375 C 5.53125 -5.082031 5.617188 -4.847656 5.671875 -4.671875 C 5.671875 -4.640625 5.65625 -4.625 5.625 -4.625 L 5.734375 -4.046875 C 5.753906 -3.816406 5.769531 -3.0625 5.78125 -1.78125 L 5.828125 -1.78125 C 5.867188 -1.476562 6.171875 -1.472656 6.734375 -1.765625 C 7.296875 -2.054688 7.367188 -1.945312 6.953125 -1.4375 C 6.535156 -0.925781 6.125 -0.648438 5.71875 -0.609375 C 5.3125 -0.566406 4.9375 -0.722656 4.59375 -1.078125 C 4.1875 -1.628906 3.953125 -2.179688 3.890625 -2.734375 C 3.859375 -3.046875 3.847656 -4 3.859375 -5.59375 L 3.859375 -5.703125 C 3.398438 -5.484375 2.925781 -5.144531 2.4375 -4.6875 C 1.945312 -4.238281 1.570312 -3.539062 1.3125 -2.59375 C 1.050781 -1.644531 0.828125 -1.082031 0.640625 -0.90625 L 0.453125 -0.890625 C -0.160156 -0.734375 -0.410156 -1.253906 -0.296875 -2.453125 C -0.00390625 -4.472656 0.210938 -5.789062 0.359375 -6.40625 C 0.503906 -7.019531 0.609375 -7.359375 0.671875 -7.421875 Z M 0.671875 -7.421875 "/></g></g></g><g fill="#ffffff" fill-opacity="1"><g transform="translate(25.455984, 15.75184)"><g><path d="M 3.515625 -5.671875 L 4.609375 -5.5 C 4.972656 -5.25 5.144531 -5.078125 5.125 -4.984375 C 4.96875 -4.816406 4.488281 -4.726562 3.6875 -4.71875 C 2.882812 -4.707031 2.320312 -4.140625 2 -3.015625 L 1.96875 -2.796875 C 1.9375 -2.597656 1.972656 -2.390625 2.078125 -2.171875 C 2.191406 -1.953125 2.421875 -1.816406 2.765625 -1.765625 L 2.84375 -1.75 C 3.28125 -1.695312 4.179688 -1.925781 5.546875 -2.4375 L 5.578125 -2.296875 L 5.5625 -2.15625 C 4.332031 -1.363281 3.296875 -1.03125 2.453125 -1.15625 C 1.078125 -1.582031 0.46875 -2.296875 0.625 -3.296875 C 1.03125 -4.273438 1.550781 -4.941406 2.1875 -5.296875 C 2.8125 -5.578125 3.253906 -5.703125 3.515625 -5.671875 Z M 3.515625 -5.671875 "/></g></g></g><g fill="#ffffff" fill-opacity="1"><g transform="translate(29.321538, 16.044847)"><g><path d="M 5.828125 -8.421875 C 6.640625 -8.328125 6.941406 -8.046875 6.734375 -7.578125 L 6.6875 -7.46875 C 5.9375 -6.289062 4.988281 -4.96875 3.84375 -3.5 L 3.875 -3.484375 C 5.144531 -4.097656 6.085938 -4.226562 6.703125 -3.875 C 7.316406 -3.53125 7.53125 -2.910156 7.34375 -2.015625 C 7.320312 -1.703125 7.28125 -1.453125 7.21875 -1.265625 C 7.207031 -1.242188 7.191406 -1.238281 7.171875 -1.25 L 6.96875 -0.703125 C 6.882812 -0.492188 6.53125 0.175781 5.90625 1.3125 L 5.953125 1.328125 C 5.835938 1.609375 6.097656 1.753906 6.734375 1.765625 C 7.367188 1.785156 7.375 1.914062 6.75 2.15625 C 6.132812 2.40625 5.640625 2.445312 5.265625 2.28125 C 4.898438 2.125 4.65625 1.8125 4.53125 1.34375 C 4.445312 0.644531 4.515625 0.0390625 4.734375 -0.46875 C 4.859375 -0.75 5.320312 -1.582031 6.125 -2.96875 L 6.15625 -3.0625 C 5.65625 -3.09375 5.082031 -3.03125 4.4375 -2.875 C 3.789062 -2.726562 3.117188 -2.304688 2.421875 -1.609375 C 1.722656 -0.910156 1.25 -0.53125 1 -0.46875 L 0.828125 -0.546875 C 0.222656 -0.710938 0.265625 -1.289062 0.953125 -2.28125 C 2.203125 -3.894531 3.265625 -5.265625 4.140625 -6.390625 C 5.023438 -7.523438 5.585938 -8.203125 5.828125 -8.421875 Z M 5.828125 -8.421875 "/></g></g></g><g fill="#ffffff" fill-opacity="1"><g transform="translate(34.814608, 18.353112)"><g><path d="M 6.234375 -2.4375 C 6.765625 -2.082031 6.703125 -1.539062 6.046875 -0.8125 C 5.265625 -0.207031 4.804688 0.175781 4.671875 0.34375 C 4.503906 0.550781 4.476562 0.710938 4.59375 0.828125 C 4.8125 0.992188 5.367188 1.195312 6.265625 1.4375 L 6.265625 1.53125 L 6.109375 1.703125 C 5.898438 1.828125 5.503906 1.800781 4.921875 1.625 C 4.691406 1.625 4.460938 1.53125 4.234375 1.34375 C 3.867188 1 3.753906 0.625 3.890625 0.21875 C 4.035156 -0.1875 4.164062 -0.457031 4.28125 -0.59375 L 4.234375 -0.625 C 2.867188 -0.09375 1.976562 0.00390625 1.5625 -0.328125 C 1.46875 -0.410156 1.410156 -0.457031 1.390625 -0.46875 C 1.140625 -0.675781 1.101562 -1.085938 1.28125 -1.703125 C 1.46875 -2.316406 2.210938 -2.726562 3.515625 -2.9375 C 4.765625 -2.863281 5.445312 -2.785156 5.5625 -2.703125 C 5.976562 -2.546875 6.203125 -2.457031 6.234375 -2.4375 Z M 1.84375 -1.296875 L 1.875 -1.140625 C 2.664062 -0.972656 3.335938 -1 3.890625 -1.21875 C 4.453125 -1.4375 4.765625 -1.582031 4.828125 -1.65625 L 4.90625 -1.75 L 4.875 -1.78125 C 4.082031 -2.09375 3.390625 -2.101562 2.796875 -1.8125 C 2.203125 -1.519531 1.882812 -1.347656 1.84375 -1.296875 Z M 1.84375 -1.296875 "/></g></g></g><g fill="#ffffff" fill-opacity="1"><g transform="translate(38.523115, 21.353034)"><g><path d="M 6.953125 -1.0625 C 7.285156 -0.84375 7.4375 -0.710938 7.40625 -0.671875 C 7.382812 -0.628906 7.328125 -0.566406 7.234375 -0.484375 C 7.140625 -0.410156 6.832031 -0.554688 6.3125 -0.921875 C 6.007812 -0.335938 5.785156 0.0078125 5.640625 0.125 C 5.503906 0.238281 5.421875 0.304688 5.390625 0.328125 C 5.359375 0.359375 5.085938 0.476562 4.578125 0.6875 C 4.078125 0.90625 3.628906 0.957031 3.234375 0.84375 C 2.835938 0.726562 2.535156 0.582031 2.328125 0.40625 C 2.117188 0.238281 1.988281 0.125 1.9375 0.0625 C 1.894531 0.0078125 1.804688 -0.0976562 1.671875 -0.265625 C 1.535156 -0.429688 1.507812 -0.648438 1.59375 -0.921875 C 1.675781 -1.203125 1.835938 -1.457031 2.078125 -1.6875 C 2.316406 -1.914062 2.707031 -2.171875 3.25 -2.453125 C 3.800781 -2.742188 4.285156 -2.863281 4.703125 -2.8125 C 5.128906 -2.769531 5.34375 -2.742188 5.34375 -2.734375 C 5.351562 -2.722656 5.441406 -2.644531 5.609375 -2.5 C 5.773438 -2.363281 5.957031 -2.144531 6.15625 -1.84375 C 6.351562 -1.550781 6.617188 -1.289062 6.953125 -1.0625 Z M 3.25 -1.03125 C 2.957031 -0.789062 2.769531 -0.640625 2.6875 -0.578125 C 2.613281 -0.515625 2.601562 -0.410156 2.65625 -0.265625 C 2.707031 -0.117188 2.84375 -0.0078125 3.0625 0.0625 C 3.28125 0.132812 3.546875 0.117188 3.859375 0.015625 C 4.171875 -0.0859375 4.414062 -0.210938 4.59375 -0.359375 C 4.78125 -0.503906 4.878906 -0.582031 4.890625 -0.59375 C 4.910156 -0.613281 5.039062 -0.726562 5.28125 -0.9375 C 5.519531 -1.15625 5.625 -1.351562 5.59375 -1.53125 L 5.5 -1.640625 C 5.320312 -1.859375 5.109375 -1.929688 4.859375 -1.859375 C 4.617188 -1.796875 4.363281 -1.703125 4.09375 -1.578125 C 3.820312 -1.453125 3.539062 -1.269531 3.25 -1.03125 Z M 3.25 -1.03125 "/></g></g></g><path fill="#ffffff" d="M 27.195312 47.457031 C 27.195312 47.980469 26.777344 48.402344 26.261719 48.402344 C 25.746094 48.402344 25.328125 47.980469 25.328125 47.457031 C 25.328125 46.9375 25.746094 46.515625 26.261719 46.515625 C 26.777344 46.515625 27.195312 46.9375 27.195312 47.457031 " fill-opacity="1" fill-rule="nonzero"/><path fill="#ffffff" d="M 28.675781 47.457031 C 28.675781 47.75 28.441406 47.984375 28.15625 47.984375 C 27.867188 47.984375 27.632812 47.75 27.632812 47.457031 C 27.632812 47.167969 27.867188 46.929688 28.15625 46.929688 C 28.441406 46.929688 28.675781 47.167969 28.675781 47.457031 " fill-opacity="1" fill-rule="nonzero"/><path fill="#ffffff" d="M 29.941406 47.457031 C 29.941406 47.648438 29.789062 47.800781 29.601562 47.800781 C 29.414062 47.800781 29.261719 47.648438 29.261719 47.457031 C 29.261719 47.269531 29.414062 47.117188 29.601562 47.117188 C 29.789062 47.117188 29.941406 47.269531 29.941406 47.457031 " fill-opacity="1" fill-rule="nonzero"/><path fill="#ffffff" d="M 23.847656 47.457031 C 23.847656 47.75 24.082031 47.984375 24.367188 47.984375 C 24.65625 47.984375 24.886719 47.75 24.886719 47.457031 C 24.886719 47.167969 24.65625 46.929688 24.367188 46.929688 C 24.082031 46.929688 23.847656 47.167969 23.847656 47.457031 " fill-opacity="1" fill-rule="nonzero"/><path fill="#ffffff" d="M 22.582031 47.457031 C 22.582031 47.648438 22.734375 47.800781 22.921875 47.800781 C 23.109375 47.800781 23.257812 47.648438 23.257812 47.457031 C 23.257812 47.269531 23.109375 47.117188 22.921875 47.117188 C 22.734375 47.117188 22.582031 47.269531 22.582031 47.457031 " fill-opacity="1" fill-rule="nonzero"/><path fill="#ffffff" d="M 8.804688 47.457031 C 8.804688 47.980469 9.222656 48.402344 9.738281 48.402344 C 10.253906 48.402344 10.671875 47.980469 10.671875 47.457031 C 10.671875 46.9375 10.253906 46.515625 9.738281 46.515625 C 9.222656 46.515625 8.804688 46.9375 8.804688 47.457031 " fill-opacity="1" fill-rule="nonzero"/><path fill="#ffffff" d="M 7.324219 47.457031 C 7.324219 47.75 7.558594 47.984375 7.84375 47.984375 C 8.132812 47.984375 8.367188 47.75 8.367188 47.457031 C 8.367188 47.167969 8.132812 46.929688 7.84375 46.929688 C 7.558594 46.929688 7.324219 47.167969 7.324219 47.457031 " fill-opacity="1" fill-rule="nonzero"/><path fill="#ffffff" d="M 6.058594 47.457031 C 6.058594 47.648438 6.210938 47.800781 6.398438 47.800781 C 6.585938 47.800781 6.738281 47.648438 6.738281 47.457031 C 6.738281 47.269531 6.585938 47.117188 6.398438 47.117188 C 6.210938 47.117188 6.058594 47.269531 6.058594 47.457031 " fill-opacity="1" fill-rule="nonzero"/><path fill="#ffffff" d="M 12.152344 47.457031 C 12.152344 47.75 11.917969 47.984375 11.632812 47.984375 C 11.34375 47.984375 11.113281 47.75 11.113281 47.457031 C 11.113281 47.167969 11.34375 46.929688 11.632812 46.929688 C 11.917969 46.929688 12.152344 47.167969 12.152344 47.457031 " fill-opacity="1" fill-rule="nonzero"/><path fill="#ffffff" d="M 13.417969 47.457031 C 13.417969 47.648438 13.265625 47.800781 13.078125 47.800781 C 12.890625 47.800781 12.742188 47.648438 12.742188 47.457031 C 12.742188 47.269531 12.890625 47.117188 13.078125 47.117188 C 13.265625 47.117188 13.417969 47.269531 13.417969 47.457031 " fill-opacity="1" fill-rule="nonzero"/><g clip-path="url(#id1)"><path fill="#ffffff" d="M 20.664062 45.644531 C 20.175781 45.089844 19.371094 45.050781 18.839844 45.542969 L 18.839844 45.539062 L 18 46.390625 L 17.160156 45.539062 L 17.160156 45.542969 C 16.628906 45.050781 15.824219 45.089844 15.335938 45.644531 C 14.847656 46.199219 14.859375 47.0625 15.347656 47.605469 L 15.347656 47.609375 L 18 50.296875 L 20.652344 47.609375 L 20.652344 47.605469 C 21.140625 47.0625 21.152344 46.199219 20.664062 45.644531 " fill-opacity="1" fill-rule="nonzero"/></g><g fill="#ffffff" fill-opacity="1"><g transform="translate(25.131668, 46.260436)"><g><path d="M 4.265625 -7.28125 C 4.722656 -7.425781 4.960938 -7.472656 4.984375 -7.421875 C 5.015625 -7.367188 5.03125 -7.265625 5.03125 -7.109375 C 5.03125 -6.960938 4.660156 -6.785156 3.921875 -6.578125 C 4.253906 -5.859375 4.421875 -5.390625 4.421875 -5.171875 C 4.421875 -4.953125 4.421875 -4.816406 4.421875 -4.765625 C 4.421875 -4.722656 4.320312 -4.382812 4.125 -3.75 C 3.9375 -3.113281 3.640625 -2.65625 3.234375 -2.375 C 2.835938 -2.101562 2.476562 -1.929688 2.15625 -1.859375 C 1.832031 -1.796875 1.625 -1.765625 1.53125 -1.765625 C 1.445312 -1.765625 1.273438 -1.765625 1.015625 -1.765625 C 0.765625 -1.765625 0.539062 -1.90625 0.34375 -2.1875 C 0.15625 -2.46875 0.0390625 -2.804688 0 -3.203125 C -0.0390625 -3.609375 0.015625 -4.171875 0.171875 -4.890625 C 0.328125 -5.617188 0.582031 -6.160156 0.9375 -6.515625 C 1.300781 -6.878906 1.488281 -7.0625 1.5 -7.0625 C 1.519531 -7.0625 1.65625 -7.082031 1.90625 -7.125 C 2.15625 -7.175781 2.492188 -7.179688 2.921875 -7.140625 C 3.359375 -7.097656 3.804688 -7.144531 4.265625 -7.28125 Z M 1.515625 -3.8125 C 1.515625 -3.351562 1.515625 -3.066406 1.515625 -2.953125 C 1.515625 -2.835938 1.597656 -2.75 1.765625 -2.6875 C 1.941406 -2.625 2.144531 -2.664062 2.375 -2.8125 C 2.601562 -2.957031 2.789062 -3.210938 2.9375 -3.578125 C 3.082031 -3.941406 3.15625 -4.265625 3.15625 -4.546875 C 3.15625 -4.828125 3.15625 -4.976562 3.15625 -5 C 3.15625 -5.03125 3.144531 -5.238281 3.125 -5.625 C 3.101562 -6.007812 3.003906 -6.253906 2.828125 -6.359375 L 2.65625 -6.359375 C 2.3125 -6.359375 2.078125 -6.21875 1.953125 -5.9375 C 1.828125 -5.664062 1.722656 -5.359375 1.640625 -5.015625 C 1.554688 -4.671875 1.515625 -4.269531 1.515625 -3.8125 Z M 1.515625 -3.8125 "/></g></g><g transform="translate(29.975418, 46.260436)"><g><path d="M 3.21875 -12.09375 L 3.28125 -12.09375 C 3.78125 -12.09375 4.179688 -11.769531 4.484375 -11.125 C 4.484375 -10.769531 3.878906 -8.625 2.671875 -4.6875 C 2.660156 -4.550781 2.644531 -4.394531 2.625 -4.21875 L 5.5625 -5.765625 C 6.644531 -6.109375 7.046875 -5.945312 6.765625 -5.28125 C 6.609375 -4.851562 5.988281 -4.394531 4.90625 -3.90625 L 4.171875 -3.53125 C 4.773438 -2.019531 5.179688 -0.914062 5.390625 -0.21875 C 5.910156 1 6.539062 1.671875 7.28125 1.796875 C 8.019531 1.921875 8.734375 1.890625 9.421875 1.703125 C 10.328125 1.523438 10.453125 1.660156 9.796875 2.109375 C 9.140625 2.566406 8.453125 2.796875 7.734375 2.796875 C 6.523438 2.796875 5.238281 2.15625 3.875 0.875 L 3.09375 -0.28125 L 2.125 -1.90625 C 2.125 -2.0625 2.035156 -2.257812 1.859375 -2.5 C 1.554688 -2.164062 1.265625 -1.203125 0.984375 0.390625 C 0.960938 0.585938 0.90625 0.6875 0.8125 0.6875 L 0.625 0.6875 C -0.40625 0.34375 -0.726562 -0.5625 -0.34375 -2.03125 C 0.851562 -6.082031 1.722656 -8.769531 2.265625 -10.09375 C 2.804688 -11.425781 3.125 -12.09375 3.21875 -12.09375 Z M 3.21875 -12.09375 "/></g></g><g transform="translate(36.342606, 46.260436)"><g><path d="M 0.859375 3.296875 C 0.285156 2.234375 0.421875 1.910156 1.265625 2.328125 C 2.117188 2.753906 2.789062 2.769531 3.28125 2.375 C 3.769531 1.976562 4.382812 0.0507812 5.125 -3.40625 L 5.078125 -3.390625 C 4.046875 -2.035156 3.109375 -1.378906 2.265625 -1.421875 C 1.421875 -1.460938 0.851562 -2.019531 0.5625 -3.09375 C 0.40625 -3.664062 0.421875 -4.640625 0.609375 -6.015625 C 0.796875 -7.390625 1.050781 -8.226562 1.375 -8.53125 C 1.707031 -8.832031 2.070312 -8.757812 2.46875 -8.3125 C 2.925781 -7.625 2.898438 -5.757812 2.390625 -2.71875 L 2.390625 -2.609375 C 2.953125 -2.835938 3.539062 -3.207031 4.15625 -3.71875 C 4.769531 -4.226562 5.257812 -5.046875 5.625 -6.171875 C 6 -7.304688 6.300781 -7.972656 6.53125 -8.171875 L 6.765625 -8.1875 C 7.503906 -8.320312 7.769531 -7.675781 7.5625 -6.25 C 6.851562 -0.382812 5.703125 2.9375 4.109375 3.71875 C 2.523438 4.507812 1.441406 4.367188 0.859375 3.296875 Z M 0.859375 3.296875 "/></g></g><g transform="translate(43.694168, 46.260436)"><g><path d="M 4.265625 -7.28125 C 4.722656 -7.425781 4.960938 -7.472656 4.984375 -7.421875 C 5.015625 -7.367188 5.03125 -7.265625 5.03125 -7.109375 C 5.03125 -6.960938 4.660156 -6.785156 3.921875 -6.578125 C 4.253906 -5.859375 4.421875 -5.390625 4.421875 -5.171875 C 4.421875 -4.953125 4.421875 -4.816406 4.421875 -4.765625 C 4.421875 -4.722656 4.320312 -4.382812 4.125 -3.75 C 3.9375 -3.113281 3.640625 -2.65625 3.234375 -2.375 C 2.835938 -2.101562 2.476562 -1.929688 2.15625 -1.859375 C 1.832031 -1.796875 1.625 -1.765625 1.53125 -1.765625 C 1.445312 -1.765625 1.273438 -1.765625 1.015625 -1.765625 C 0.765625 -1.765625 0.539062 -1.90625 0.34375 -2.1875 C 0.15625 -2.46875 0.0390625 -2.804688 0 -3.203125 C -0.0390625 -3.609375 0.015625 -4.171875 0.171875 -4.890625 C 0.328125 -5.617188 0.582031 -6.160156 0.9375 -6.515625 C 1.300781 -6.878906 1.488281 -7.0625 1.5 -7.0625 C 1.519531 -7.0625 1.65625 -7.082031 1.90625 -7.125 C 2.15625 -7.175781 2.492188 -7.179688 2.921875 -7.140625 C 3.359375 -7.097656 3.804688 -7.144531 4.265625 -7.28125 Z M 1.515625 -3.8125 C 1.515625 -3.351562 1.515625 -3.066406 1.515625 -2.953125 C 1.515625 -2.835938 1.597656 -2.75 1.765625 -2.6875 C 1.941406 -2.625 2.144531 -2.664062 2.375 -2.8125 C 2.601562 -2.957031 2.789062 -3.210938 2.9375 -3.578125 C 3.082031 -3.941406 3.15625 -4.265625 3.15625 -4.546875 C 3.15625 -4.828125 3.15625 -4.976562 3.15625 -5 C 3.15625 -5.03125 3.144531 -5.238281 3.125 -5.625 C 3.101562 -6.007812 3.003906 -6.253906 2.828125 -6.359375 L 2.65625 -6.359375 C 2.3125 -6.359375 2.078125 -6.21875 1.953125 -5.9375 C 1.828125 -5.664062 1.722656 -5.359375 1.640625 -5.015625 C 1.554688 -4.671875 1.515625 -4.269531 1.515625 -3.8125 Z M 1.515625 -3.8125 "/></g></g></g></svg>